<svg xmlns="http://www.w3.org/2000/svg" width="48" height="48" fill="none">
                                				<circle cx="24" cy="23" r="16" fill="#FFDF5E"/><circle cx="24" cy="23" r="16" fill="url(#a)" fill-opacity=".5"/><path d="M30.1 26.85v-.02A4.8 4.8 0 0 1 34.86 22a4.77 4.77 0 0 1 4.55 3.45c2 .08 3.6 1.75 3.6 3.8a3.76 3.76 0 0 1-3.74 3.78h-9.48a3.08 3.08 0 0 1-3.09-3.1 3.08 3.08 0 0 1 3.4-3.08Z" fill="#F4FAFF"/><path d="M30.1 26.85v-.02A4.8 4.8 0 0 1 34.86 22a4.77 4.77 0 0 1 4.55 3.45c2 .08 3.6 1.75 3.6 3.8a3.76 3.76 0 0 1-3.74 3.78h-9.48a3.08 3.08 0 0 1-3.09-3.1 3.08 3.08 0 0 1 3.4-3.08Z" fill="#DBEDFF"/><path d="M30.1 26.85v-.02A4.8 4.8 0 0 1 34.86 22a4.77 4.77 0 0 1 4.55 3.45c2 .08 3.6 1.75 3.6 3.8a3.76 3.76 0 0 1-3.74 3.78h-9.48a3.08 3.08 0 0 1-3.09-3.1 3.08 3.08 0 0 1 3.4-3.08Z" fill="url(#b)" fill-opacity=".9"/><path d="M30.1 26.85v-.02A4.8 4.8 0 0 1 34.86 22a4.77 4.77 0 0 1 4.55 3.45c2 .08 3.6 1.75 3.6 3.8a3.76 3.76 0 0 1-3.74 3.78h-9.48a3.08 3.08 0 0 1-3.09-3.1 3.08 3.08 0 0 1 3.4-3.08Z" fill="url(#c)" fill-opacity=".2"/><defs><radialGradient id="a" cx="0" cy="0" r="1" gradientUnits="userSpaceOnUse" gradientTransform="rotate(-143.32 23.8 9.03) scale(24.3533 19.4314)"><stop stop-color="#FCAB14" stop-opacity=".26"/><stop offset="1" stop-color="#FFDF59"/></radialGradient><radialGradient id="b" cx="0" cy="0" r="1" gradientUnits="userSpaceOnUse" gradientTransform="matrix(-2.99981 -2.50024 10.86058 -13.03065 35.01 24.5)"><stop stop-color="#fff" stop-opacity=".78"/><stop offset="1" stop-color="#F2F8FD" stop-opacity=".99"/></radialGradient><linearGradient id="c" x1="42" y1="31.5" x2="35" y2="29" gradientUnits="userSpaceOnUse"><stop stop-color="#B7E0FF"/><stop offset="1" stop-color="#B7E0FF" stop-opacity="0"/></linearGradient></defs></svg>